<mxfile host="app.diagrams.net" modified="2024-01-08T12:26:22.978Z" agent="Mozilla/5.0 (Windows NT 10.0; Win64; x64; rv:121.0) Gecko/20100101 Firefox/121.0" etag="0RnkaBmvyAEXfAcfJ2cA" version="22.1.17" type="device">
  <diagram name="Страница — 1" id="yGiQk9tj1qhFuo5iZe14">
    <mxGraphModel dx="1434" dy="754" grid="1" gridSize="10" guides="1" tooltips="1" connect="1" arrows="1" fold="1" page="1" pageScale="1" pageWidth="827" pageHeight="1169" math="0" shadow="0">
      <root>
        <mxCell id="0" />
        <mxCell id="1" parent="0" />
        <mxCell id="s2LVM-95NKHf_-tHiVWO-1" value="TSDB" style="shape=cylinder3;whiteSpace=wrap;html=1;boundedLbl=1;backgroundOutline=1;size=15;" vertex="1" parent="1">
          <mxGeometry x="290" y="140" width="60" height="80" as="geometry" />
        </mxCell>
        <mxCell id="s2LVM-95NKHf_-tHiVWO-9" style="edgeStyle=orthogonalEdgeStyle;rounded=0;orthogonalLoop=1;jettySize=auto;html=1;exitX=1;exitY=0.75;exitDx=0;exitDy=0;entryX=0;entryY=0.75;entryDx=0;entryDy=0;" edge="1" parent="1" source="s2LVM-95NKHf_-tHiVWO-2" target="s2LVM-95NKHf_-tHiVWO-3">
          <mxGeometry relative="1" as="geometry" />
        </mxCell>
        <mxCell id="s2LVM-95NKHf_-tHiVWO-10" value="Measurements/mqtt" style="edgeLabel;html=1;align=center;verticalAlign=middle;resizable=0;points=[];" vertex="1" connectable="0" parent="s2LVM-95NKHf_-tHiVWO-9">
          <mxGeometry x="-0.2545" y="-2" relative="1" as="geometry">
            <mxPoint x="9" y="13" as="offset" />
          </mxGeometry>
        </mxCell>
        <mxCell id="s2LVM-95NKHf_-tHiVWO-2" value="Matlab Model" style="rounded=0;whiteSpace=wrap;html=1;" vertex="1" parent="1">
          <mxGeometry x="30" y="380" width="120" height="60" as="geometry" />
        </mxCell>
        <mxCell id="s2LVM-95NKHf_-tHiVWO-3" value="Gateway" style="rounded=0;whiteSpace=wrap;html=1;" vertex="1" parent="1">
          <mxGeometry x="260" y="380" width="120" height="60" as="geometry" />
        </mxCell>
        <mxCell id="s2LVM-95NKHf_-tHiVWO-5" value="" style="endArrow=classic;html=1;rounded=0;entryX=0.5;entryY=1;entryDx=0;entryDy=0;entryPerimeter=0;exitX=0.5;exitY=0;exitDx=0;exitDy=0;" edge="1" parent="1" source="s2LVM-95NKHf_-tHiVWO-3" target="s2LVM-95NKHf_-tHiVWO-1">
          <mxGeometry width="50" height="50" relative="1" as="geometry">
            <mxPoint x="420" y="410" as="sourcePoint" />
            <mxPoint x="470" y="360" as="targetPoint" />
          </mxGeometry>
        </mxCell>
        <mxCell id="s2LVM-95NKHf_-tHiVWO-11" value="Mesurements/http" style="edgeLabel;html=1;align=center;verticalAlign=middle;resizable=0;points=[];" vertex="1" connectable="0" parent="s2LVM-95NKHf_-tHiVWO-5">
          <mxGeometry x="-0.125" relative="1" as="geometry">
            <mxPoint as="offset" />
          </mxGeometry>
        </mxCell>
        <mxCell id="s2LVM-95NKHf_-tHiVWO-7" value="" style="endArrow=classic;html=1;rounded=0;entryX=1;entryY=0.25;entryDx=0;entryDy=0;exitX=0;exitY=0.25;exitDx=0;exitDy=0;" edge="1" parent="1" source="s2LVM-95NKHf_-tHiVWO-3" target="s2LVM-95NKHf_-tHiVWO-2">
          <mxGeometry width="50" height="50" relative="1" as="geometry">
            <mxPoint x="430" y="550" as="sourcePoint" />
            <mxPoint x="480" y="500" as="targetPoint" />
          </mxGeometry>
        </mxCell>
        <mxCell id="s2LVM-95NKHf_-tHiVWO-8" value="Commands/mqtt" style="edgeLabel;html=1;align=center;verticalAlign=middle;resizable=0;points=[];" vertex="1" connectable="0" parent="s2LVM-95NKHf_-tHiVWO-7">
          <mxGeometry x="0.5091" relative="1" as="geometry">
            <mxPoint x="23" y="-15" as="offset" />
          </mxGeometry>
        </mxCell>
        <mxCell id="s2LVM-95NKHf_-tHiVWO-23" value="" style="endArrow=classic;startArrow=classic;html=1;rounded=0;exitX=1;exitY=0;exitDx=0;exitDy=52.5;exitPerimeter=0;entryX=0;entryY=0.5;entryDx=0;entryDy=0;" edge="1" parent="1" source="s2LVM-95NKHf_-tHiVWO-1" target="s2LVM-95NKHf_-tHiVWO-36">
          <mxGeometry width="50" height="50" relative="1" as="geometry">
            <mxPoint x="420" y="410" as="sourcePoint" />
            <mxPoint x="570" y="410" as="targetPoint" />
          </mxGeometry>
        </mxCell>
        <mxCell id="s2LVM-95NKHf_-tHiVWO-24" value="Data/http" style="edgeLabel;html=1;align=center;verticalAlign=middle;resizable=0;points=[];" vertex="1" connectable="0" parent="s2LVM-95NKHf_-tHiVWO-23">
          <mxGeometry x="-0.0228" y="1" relative="1" as="geometry">
            <mxPoint x="10" y="23" as="offset" />
          </mxGeometry>
        </mxCell>
        <mxCell id="s2LVM-95NKHf_-tHiVWO-28" value="" style="endArrow=classic;html=1;rounded=0;entryX=1;entryY=0.5;entryDx=0;entryDy=0;exitX=0;exitY=0.5;exitDx=0;exitDy=0;" edge="1" parent="1" source="s2LVM-95NKHf_-tHiVWO-36" target="s2LVM-95NKHf_-tHiVWO-3">
          <mxGeometry width="50" height="50" relative="1" as="geometry">
            <mxPoint x="570" y="410" as="sourcePoint" />
            <mxPoint x="470" y="360" as="targetPoint" />
          </mxGeometry>
        </mxCell>
        <mxCell id="s2LVM-95NKHf_-tHiVWO-29" value="Commands/http" style="edgeLabel;html=1;align=center;verticalAlign=middle;resizable=0;points=[];" vertex="1" connectable="0" parent="s2LVM-95NKHf_-tHiVWO-28">
          <mxGeometry x="0.1222" y="2" relative="1" as="geometry">
            <mxPoint as="offset" />
          </mxGeometry>
        </mxCell>
        <mxCell id="s2LVM-95NKHf_-tHiVWO-33" value="&lt;font style=&quot;font-size: 14px;&quot;&gt;Other services&lt;/font&gt;" style="text;strokeColor=none;fillColor=none;html=1;fontSize=24;fontStyle=1;verticalAlign=middle;align=center;" vertex="1" parent="1">
          <mxGeometry x="565" y="290" width="100" height="40" as="geometry" />
        </mxCell>
        <mxCell id="s2LVM-95NKHf_-tHiVWO-34" value="Service 1" style="rounded=0;whiteSpace=wrap;html=1;" vertex="1" parent="1">
          <mxGeometry x="570" y="365" width="90" height="30" as="geometry" />
        </mxCell>
        <mxCell id="s2LVM-95NKHf_-tHiVWO-35" value="" style="shape=curlyBracket;whiteSpace=wrap;html=1;rounded=1;flipH=1;labelPosition=right;verticalLabelPosition=middle;align=left;verticalAlign=middle;rotation=-90;" vertex="1" parent="1">
          <mxGeometry x="605" y="295" width="20" height="90" as="geometry" />
        </mxCell>
        <mxCell id="s2LVM-95NKHf_-tHiVWO-36" value="..." style="text;html=1;strokeColor=none;fillColor=none;align=center;verticalAlign=middle;whiteSpace=wrap;rounded=0;" vertex="1" parent="1">
          <mxGeometry x="570" y="395" width="90" height="30" as="geometry" />
        </mxCell>
        <mxCell id="s2LVM-95NKHf_-tHiVWO-37" value="" style="shape=curlyBracket;whiteSpace=wrap;html=1;rounded=1;flipH=1;labelPosition=right;verticalLabelPosition=middle;align=left;verticalAlign=middle;rotation=90;" vertex="1" parent="1">
          <mxGeometry x="605" y="435" width="20" height="90" as="geometry" />
        </mxCell>
        <mxCell id="s2LVM-95NKHf_-tHiVWO-38" value="Service N" style="rounded=0;whiteSpace=wrap;html=1;" vertex="1" parent="1">
          <mxGeometry x="570" y="425" width="90" height="30" as="geometry" />
        </mxCell>
      </root>
    </mxGraphModel>
  </diagram>
</mxfile>
